<svg width="1200" height="2800" xmlns="http://www.w3.org/2000/svg">
  <defs>
    <style>
      .title { font-family: Arial, sans-serif; font-size: 24px; font-weight: bold; fill: #2c3e50; }
      .subtitle { font-family: Arial, sans-serif; font-size: 18px; font-weight: bold; fill: #34495e; }
      .class-box { fill: #3498db; stroke: #2980b9; stroke-width: 2; rx: 8; }
      .method-box { fill: #e74c3c; stroke: #c0392b; stroke-width: 2; rx: 6; }
      .process-box { fill: #2ecc71; stroke: #27ae60; stroke-width: 2; rx: 6; }
      .decision-box { fill: #f39c12; stroke: #e67e22; stroke-width: 2; rx: 6; }
      .text { font-family: Arial, sans-serif; font-size: 12px; fill: white; text-anchor: middle; }
      .text-small { font-family: Arial, sans-serif; font-size: 10px; fill: white; text-anchor: middle; }
      .arrow { fill: none; stroke: #34495e; stroke-width: 2; marker-end: url(#arrowhead); }
      .arrow-dashed { fill: none; stroke: #7f8c8d; stroke-width: 2; stroke-dasharray: 5,5; marker-end: url(#arrowhead); }
      .arrow-thick { fill: none; stroke: #2c3e50; stroke-width: 3; marker-end: url(#arrowhead); }
    </style>
    <marker id="arrowhead" markerWidth="10" markerHeight="7" refX="9" refY="3.5" orient="auto">
      <polygon points="0 0, 10 3.5, 0 7" fill="#34495e" />
    </marker>
  </defs>

  <!-- Title -->
  <text x="600" y="30" class="title" text-anchor="middle">AutoFE 特征生产处理流程</text>
  <text x="600" y="55" class="subtitle" text-anchor="middle">test_util.py → llm_dag_util_gp_dys.py</text>

  <!-- TestUtil.py Section -->
  <text x="100" y="90" class="subtitle">test_util.py 入口</text>
  
  <!-- TestDir.test_astar_step -->
  <rect x="20" y="100" width="180" height="60" class="class-box"/>
  <text x="110" y="125" class="text">TestDir.test_astar_step</text>
  <text x="110" y="140" class="text-small">测试A*搜索特征生成</text>
  
  <!-- LLMDagConstructor Initialization -->
  <rect x="20" y="180" width="180" height="60" class="class-box"/>
  <text x="110" y="205" class="text">LLMDagConstructor</text>
  <text x="110" y="220" class="text-small">初始化特征工程DAG构造器</text>

  <!-- Main Process Flow -->
  <text x="400" y="90" class="subtitle">主要处理流程</text>
  
  <!-- astar_k_step -->
  <rect x="300" y="100" width="160" height="50" class="method-box"/>
  <text x="380" y="130" class="text">astar_k_step</text>
  
  <!-- init_task_params -->
  <rect x="500" y="100" width="140" height="50" class="method-box"/>
  <text x="570" y="130" class="text">init_task_params</text>
  
  <!-- init_root_node -->
  <rect x="680" y="100" width="120" height="50" class="method-box"/>
  <text x="740" y="130" class="text">init_root_node</text>
  
  <!-- MultiFidelityBayesianOptimizer -->
  <rect x="850" y="100" width="180" height="50" class="class-box"/>
  <text x="940" y="130" class="text">MultiFidelityBayesianOptimizer</text>
  
  <!-- Planner Agents -->
  <rect x="1070" y="100" width="100" height="50" class="class-box"/>
  <text x="1120" y="130" class="text">Planner Agents</text>

  <!-- A* Search Loop -->
  <text x="400" y="200" class="subtitle">A*搜索循环</text>
  
  <!-- astar_one_step -->
  <rect x="300" y="220" width="160" height="50" class="method-box"/>
  <text x="380" y="250" class="text">astar_one_step</text>
  
  <!-- Budget Check -->
  <rect x="500" y="220" width="120" height="50" class="decision-box"/>
  <text x="560" y="250" class="text">预算检查</text>
  
  <!-- astar_one_step_multifidelity -->
  <rect x="650" y="220" width="200" height="50" class="method-box"/>
  <text x="750" y="250" class="text">astar_one_step_multifidelity</text>

  <!-- MultiFidelity Optimization -->
  <text x="400" y="320" class="subtitle">多保真度优化流程</text>
  
  <!-- select_next_evaluation -->
  <rect x="300" y="340" width="160" height="50" class="method-box"/>
  <text x="380" y="370" class="text">select_next_evaluation</text>
  
  <!-- Fidelity Levels -->
  <rect x="500" y="340" width="140" height="50" class="process-box"/>
  <text x="570" y="370" class="text">保真度级别选择</text>
  
  <!-- evaluate_node_at_fidelity -->
  <rect x="680" y="340" width="180" height="50" class="method-box"/>
  <text x="770" y="370" class="text">evaluate_node_at_fidelity</text>
  
  <!-- add_evaluation_record -->
  <rect x="900" y="340" width="160" height="50" class="method-box"/>
  <text x="980" y="370" class="text">add_evaluation_record</text>

  <!-- Feature Generation -->
  <text x="400" y="440" class="subtitle">特征生成流程</text>
  
  <!-- task_to_features -->
  <rect x="300" y="460" width="160" height="50" class="method-box"/>
  <text x="380" y="490" class="text">task_to_features</text>
  
  <!-- NLAgent.task_to_desc -->
  <rect x="500" y="460" width="140" height="50" class="class-box"/>
  <text x="570" y="490" class="text">NLAgent.task_to_desc</text>
  
  <!-- CodeAgent.feature_to_code -->
  <rect x="680" y="460" width="160" height="50" class="class-box"/>
  <text x="760" y="490" class="text">CodeAgent.feature_to_code</text>
  
  <!-- Code Execution & Validation -->
  <rect x="900" y="460" width="160" height="50" class="process-box"/>
  <text x="980" y="490" class="text">代码执行与验证</text>

  <!-- Performance Evaluation -->
  <text x="400" y="560" class="subtitle">性能评估流程</text>
  
  <!-- get_scores_with_data -->
  <rect x="300" y="580" width="160" height="50" class="method-box"/>
  <text x="380" y="610" class="text">get_scores_with_data</text>
  
  <!-- cross_validate -->
  <rect x="500" y="580" width="120" height="50" class="method-box"/>
  <text x="560" y="610" class="text">cross_validate</text>
  
  <!-- LightGBM Model -->
  <rect x="680" y="580" width="120" height="50" class="process-box"/>
  <text x="740" y="610" class="text">LightGBM模型</text>
  
  <!-- ROC AUC Score -->
  <rect x="850" y="580" width="120" height="50" class="process-box"/>
  <text x="910" y="610" class="text">ROC AUC评分</text>

  <!-- DAG Management -->
  <text x="400" y="680" class="subtitle">DAG管理流程</text>
  
  <!-- Node Creation -->
  <rect x="300" y="700" width="120" height="50" class="process-box"/>
  <text x="360" y="730" class="text">节点创建</text>
  
  <!-- Edge Management -->
  <rect x="460" y="700" width="120" height="50" class="process-box"/>
  <text x="520" y="730" class="text">边管理</text>
  
  <!-- Level States -->
  <rect x="620" y="700" width="120" height="50" class="process-box"/>
  <text x="680" y="730" class="text">层级状态</text>
  
  <!-- Priority Queue -->
  <rect x="780" y="700" width="120" height="50" class="process-box"/>
  <text x="840" y="730" class="text">优先队列</text>

  <!-- Concurrency -->
  <text x="400" y="800" class="subtitle">并发处理</text>
  
  <!-- ThreadPoolExecutor -->
  <rect x="300" y="820" width="160" height="50" class="class-box"/>
  <text x="380" y="850" class="text">ThreadPoolExecutor</text>
  
  <!-- Concurrent Processing -->
  <rect x="500" y="820" width="140" height="50" class="process-box"/>
  <text x="570" y="850" class="text">并发处理</text>
  
  <!-- Result Aggregation -->
  <rect x="680" y="820" width="140" height="50" class="process-box"/>
  <text x="750" y="850" class="text">结果聚合</text>

  <!-- Visualization -->
  <text x="400" y="920" class="subtitle">可视化与输出</text>
  
  <!-- draw_current -->
  <rect x="300" y="940" width="120" height="50" class="method-box"/>
  <text x="360" y="970" class="text">draw_current</text>
  
  <!-- DAG Visualization -->
  <rect x="460" y="940" width="140" height="50" class="process-box"/>
  <text x="530" y="970" class="text">DAG可视化</text>
  
  <!-- compute_best_code -->
  <rect x="640" y="940" width="140" height="50" class="method-box"/>
  <text x="710" y="970" class="text">compute_best_code</text>
  
  <!-- Code Output -->
  <rect x="820" y="940" width="120" height="50" class="process-box"/>
  <text x="880" y="970" class="text">代码输出</text>

  <!-- Fidelity Level Details -->
  <text x="50" y="1080" class="subtitle">保真度级别详情</text>
  
  <!-- Level 1% -->
  <rect x="20" y="1100" width="100" height="40" class="process-box"/>
  <text x="70" y="1125" class="text-small">Level 1%</text>
  
  <!-- Level 4% -->
  <rect x="140" y="1100" width="100" height="40" class="process-box"/>
  <text x="190" y="1125" class="text-small">Level 4%</text>
  
  <!-- Level 16% -->
  <rect x="260" y="1100" width="100" height="40" class="process-box"/>
  <text x="310" y="1125" class="text-small">Level 16%</text>
  
  <!-- Level 64% -->
  <rect x="380" y="1100" width="100" height="40" class="process-box"/>
  <text x="430" y="1125" class="text-small">Level 64%</text>
  
  <!-- Level 100% -->
  <rect x="500" y="1100" width="100" height="40" class="process-box"/>
  <text x="550" y="1125" class="text-small">Level 100%</text>

  <!-- Key Algorithms -->
  <text x="50" y="1220" class="subtitle">核心算法</text>
  
  <!-- Gaussian Process -->
  <rect x="20" y="1240" width="140" height="50" class="class-box"/>
  <text x="90" y="1270" class="text">高斯过程回归</text>
  
  <!-- Expected Improvement -->
  <rect x="180" y="1240" width="140" height="50" class="method-box"/>
  <text x="250" y="1270" class="text">期望改进函数</text>
  
  <!-- Cost Function -->
  <rect x="340" y="1240" width="120" height="50" class="method-box"/>
  <text x="400" y="1270" class="text">成本函数</text>
  
  <!-- A* Heuristic -->
  <rect x="480" y="1240" width="120" height="50" class="method-box"/>
  <text x="540" y="1270" class="text">A*启发函数</text>

  <!-- Data Flow -->
  <text x="50" y="1360" class="subtitle">数据流</text>
  
  <!-- Data Input -->
  <rect x="20" y="1380" width="100" height="40" class="process-box"/>
  <text x="70" y="1405" class="text-small">数据输入</text>
  
  <!-- Feature Engineering -->
  <rect x="140" y="1380" width="120" height="40" class="process-box"/>
  <text x="200" y="1405" class="text-small">特征工程</text>
  
  <!-- Model Training -->
  <rect x="280" y="1380" width="120" height="40" class="process-box"/>
  <text x="340" y="1405" class="text-small">模型训练</text>
  
  <!-- Performance Metrics -->
  <rect x="420" y="1380" width="120" height="40" class="process-box"/>
  <text x="480" y="1405" class="text-small">性能指标</text>
  
  <!-- Optimization Loop -->
  <rect x="560" y="1380" width="120" height="40" class="process-box"/>
  <text x="620" y="1405" class="text-small">优化循环</text>

  <!-- Error Handling -->
  <text x="50" y="1500" class="subtitle">错误处理</text>
  
  <!-- Retry Logic -->
  <rect x="20" y="1520" width="100" height="40" class="decision-box"/>
  <text x="70" y="1545" class="text-small">重试逻辑</text>
  
  <!-- Exception Handling -->
  <rect x="140" y="1520" width="120" height="40" class="decision-box"/>
  <text x="200" y="1545" class="text-small">异常处理</text>
  
  <!-- Fallback Mechanism -->
  <rect x="280" y="1520" width="120" height="40" class="decision-box"/>
  <text x="340" y="1545" class="text-small">降级机制</text>

  <!-- Output Section -->
  <text x="50" y="1640" class="subtitle">输出结果</text>
  
  <!-- Best Features -->
  <rect x="20" y="1660" width="120" height="40" class="process-box"/>
  <text x="80" y="1685" class="text-small">最佳特征</text>
  
  <!-- Generated Code -->
  <rect x="160" y="1660" width="120" height="40" class="process-box"/>
  <text x="220" y="1685" class="text-small">生成代码</text>
  
  <!-- Performance Report -->
  <rect x="300" y="1660" width="120" height="40" class="process-box"/>
  <text x="360" y="1685" class="text-small">性能报告</text>
  
  <!-- Visualization Files -->
  <rect x="440" y="1660" width="120" height="40" class="process-box"/>
  <text x="500" y="1685" class="text-small">可视化文件</text>

  <!-- Arrows - Main Flow -->
  <path d="M 110 160 L 110 180" class="arrow-thick"/>
  <path d="M 200 130 L 300 130" class="arrow-thick"/>
  <path d="M 380 150 L 380 180 L 570 180 L 570 150" class="arrow"/>
  <path d="M 570 150 L 570 180 L 740 180 L 740 150" class="arrow"/>
  <path d="M 740 150 L 740 180 L 940 180 L 940 150" class="arrow"/>
  <path d="M 940 150 L 940 180 L 1120 180 L 1120 150" class="arrow"/>
  
  <!-- A* Loop -->
  <path d="M 380 150 L 380 220" class="arrow-thick"/>
  <path d="M 460 245 L 500 245" class="arrow"/>
  <path d="M 620 245 L 650 245" class="arrow"/>
  
  <!-- MultiFidelity Flow -->
  <path d="M 750 270 L 750 300 L 380 300 L 380 340" class="arrow-dashed"/>
  <path d="M 460 365 L 500 365" class="arrow"/>
  <path d="M 640 365 L 680 365" class="arrow"/>
  <path d="M 860 365 L 900 365" class="arrow"/>
  
  <!-- Feature Generation -->
  <path d="M 750 270 L 750 300 L 380 300 L 380 460" class="arrow-dashed"/>
  <path d="M 460 485 L 500 485" class="arrow"/>
  <path d="M 640 485 L 680 485" class="arrow"/>
  <path d="M 840 485 L 900 485" class="arrow"/>
  
  <!-- Performance Evaluation -->
  <path d="M 770 390 L 770 420 L 380 420 L 380 580" class="arrow-dashed"/>
  <path d="M 460 605 L 500 605" class="arrow"/>
  <path d="M 620 605 L 680 605" class="arrow"/>
  <path d="M 800 605 L 850 605" class="arrow"/>
  
  <!-- Back to Main Loop -->
  <path d="M 750 390 L 750 420 L 1200 420 L 1200 245 L 850 245" class="arrow-dashed"/>
  
  <!-- Legend -->
  <text x="50" y="1800" class="subtitle">图例</text>
  
  <rect x="20" y="1820" width="80" height="30" class="class-box"/>
  <text x="60" y="1840" class="text-small">类/代理</text>
  
  <rect x="120" y="1820" width="80" height="30" class="method-box"/>
  <text x="160" y="1840" class="text-small">方法</text>
  
  <rect x="220" y="1820" width="80" height="30" class="process-box"/>
  <text x="260" y="1840" class="text-small">处理</text>
  
  <rect x="320" y="1820" width="80" height="30" class="decision-box"/>
  <text x="360" y="1840" class="text-small">判断</text>
  
  <path d="M 20 1870 L 100 1870" class="arrow-thick"/>
  <text x="110" y="1875" class="text-small">主要流程</text>
  
  <path d="M 20 1890 L 100 1890" class="arrow-dashed"/>
  <text x="110" y="1895" class="text-small">条件流程</text>
  
  <!-- Key Features -->
  <text x="50" y="1980" class="subtitle">关键特性</text>
  <text x="50" y="2000" class="text-small">• 多保真度贝叶斯优化</text>
  <text x="50" y="2020" class="text-small">• A*搜索算法</text>
  <text x="50" y="2040" class="text-small">• 智能体协作</text>
  <text x="50" y="2060" class="text-small">• 并发处理</text>
  <text x="50" y="2080" class="text-small">• 自适应预算管理</text>
  <text x="50" y="2100" class="text-small">• 实时性能评估</text>
  <text x="50" y="2120" class="text-small">• 自动代码生成</text>
  <text x="50" y="2140" class="text-small">• 可视化输出</text>
  
  <!-- Performance Metrics -->
  <text x="300" y="1980" class="subtitle">性能指标</text>
  <text x="300" y="2000" class="text-small">• ROC AUC分数</text>
  <text x="300" y="2020" class="text-small">• 交叉验证</text>
  <text x="300" y="2040" class="text-small">• 计算成本</text>
  <text x="300" y="2060" class="text-small">• 收敛速度</text>
  <text x="300" y="2080" class="text-small">• 特征重要性</text>
  
  <!-- Output Files -->
  <text x="550" y="1980" class="subtitle">输出文件</text>
  <text x="550" y="2000" class="text-small">• 特征转换代码</text>
  <text x="550" y="2020" class="text-small">• DAG可视化图</text>
  <text x="550" y="2040" class="text-small">• 性能报告</text>
  <text x="550" y="2060" class="text-small">• 最佳特征组合</text>
  <text x="550" y="2080" class="text-small">• 状态保存文件</text>
  
  <!-- Integration Points -->
  <text x="800" y="1980" class="subtitle">集成点</text>
  <text x="800" y="2000" class="text-small">• PostgreSQL数据库</text>
  <text x="800" y="2020" class="text-small">• OpenAI API</text>
  <text x="800" y="2040" class="text-small">• LightGBM模型</text>
  <text x="800" y="2060" class="text-small">• NetworkX图库</text>
  <text x="800" y="2080" class="text-small">• scikit-learn</text>
  
  <!-- System Requirements -->
  <text x="50" y="2220" class="subtitle">系统要求</text>
  <text x="50" y="2240" class="text-small">• Python 3.8+</text>
  <text x="50" y="2260" class="text-small">• PostgreSQL</text>
  <text x="50" y="2280" class="text-small">• OpenAI API Key</text>
  <text x="50" y="2300" class="text-small">• 足够的计算资源</text>
  <text x="50" y="2320" class="text-small">• 存储空间</text>
  
  <!-- Configuration -->
  <text x="300" y="2220" class="subtitle">配置参数</text>
  <text x="300" y="2240" class="text-small">• 多保真度预算</text>
  <text x="300" y="2260" class="text-small">• 搜索宽度</text>
  <text x="300" y="2280" class="text-small">• 模型类型</text>
  <text x="300" y="2300" class="text-small">• Token限制</text>
  <text x="300" y="2320" class="text-small">• 温度参数</text>
  
  <!-- Monitoring -->
  <text x="550" y="2220" class="subtitle">监控指标</text>
  <text x="550" y="2240" class="text-small">• 预算使用情况</text>
  <text x="550" y="2260" class="text-small">• 搜索进度</text>
  <text x="550" y="2280" class="text-small">• 性能改进</text>
  <text x="550" y="2300" class="text-small">• 错误率</text>
  <text x="550" y="2320" class="text-small">• 收敛状态</text>
  
  <!-- Scalability -->
  <text x="800" y="2220" class="subtitle">扩展性</text>
  <text x="800" y="2240" class="text-small">• 分布式计算</text>
  <text x="800" y="2260" class="text-small">• 增量学习</text>
  <text x="800" y="2280" class="text-small">• 多GPU支持</text>
  <text x="800" y="2300" class="text-small">• 批处理</text>
  <text x="800" y="2320" class="text-small">• 缓存机制</text>
  
  <!-- Footer -->
  <text x="600" y="2420" class="text-small" text-anchor="middle" style="fill: #7f8c8d;">
    AutoFE特征工程系统 - 多保真度贝叶斯优化 + A*搜索 + 智能体协作
  </text>
  <text x="600" y="2440" class="text-small" text-anchor="middle" style="fill: #7f8c8d;">
    支持动态预算管理、自适应采样、并发处理和实时性能评估
  </text>
  <text x="600" y="2460" class="text-small" text-anchor="middle" style="fill: #7f8c8d;">
    输出最佳特征组合、转换代码、可视化图表和性能报告
  </text>
  <text x="600" y="2480" class="text-small" text-anchor="middle" style="fill: #7f8c8d;">
    集成PostgreSQL、OpenAI API、LightGBM和NetworkX等技术栈
  </text>
  <text x="600" y="2520" class="text-small" text-anchor="middle" style="fill: #95a5a6;">
    Generated by AutoFE System Analysis
  </text>
  <text x="600" y="2540" class="text-small" text-anchor="middle" style="fill: #95a5a6;">
    Date: 2025-01-24
  </text>
  <text x="600" y="2560" class="text-small" text-anchor="middle" style="fill: #95a5a6;">
    Version: MultiFidelity Bayesian Optimization v1.0
  </text>
  <text x="600" y="2580" class="text-small" text-anchor="middle" style="fill: #95a5a6;">
    File: test_util.py → llm_dag_util_gp_dys.py
  </text>
  <text x="600" y="2600" class="text-small" text-anchor="middle" style="fill: #95a5a6;">
    © 2025 AutoFE Project. All rights reserved.
  </text>
</svg>